<?xml version="1.0" standalone="no"?>
<!DOCTYPE svg PUBLIC "-//W3C//DTD SVG 20010904//EN"
 "http://www.w3.org/TR/2001/REC-SVG-20010904/DTD/svg10.dtd">
<svg version="1.0" xmlns="http://www.w3.org/2000/svg"
 width="616.000000pt" height="616.000000pt" viewBox="0 0 616.000000 616.000000"
 preserveAspectRatio="xMidYMid meet">

<g transform="translate(0.000000,616.000000) scale(0.100000,-0.100000)"
fill="#000000" stroke="none">
<path d="M2533 5663 c-12 -21 -29 -67 -38 -103 -9 -36 -30 -110 -47 -165 -16
-55 -38 -129 -48 -165 -9 -36 -25 -91 -35 -123 l-17 -58 -40 6 c-68 12 -141
-3 -205 -42 -116 -70 -367 -134 -349 -88 3 9 1 24 -6 34 -7 12 -8 27 -1 46 7
21 5 37 -10 67 -11 21 -23 38 -29 38 -5 0 -7 -4 -3 -9 3 -5 1 -12 -5 -16 -5
-3 -10 3 -10 14 0 23 -8 26 -30 10 -11 -8 -12 -12 -2 -16 6 -2 12 -8 12 -13 0
-13 -73 -55 -89 -52 -12 3 -13 1 -3 -11 15 -17 2 -31 -40 -41 -19 -4 -34 0
-55 17 -55 44 -89 63 -130 75 -27 8 -54 26 -76 53 -22 25 -38 36 -42 29 -4 -7
-23 -9 -51 -4 -44 6 -44 6 -44 -25 0 -23 -8 -36 -34 -53 -18 -13 -62 -55 -96
-93 -35 -39 -80 -84 -99 -102 l-36 -32 32 -11 c18 -7 31 -16 28 -20 -6 -9 53
-111 70 -122 9 -5 28 -44 88 -175 6 -13 16 -23 23 -23 19 0 33 -31 27 -61 -3
-15 0 -30 6 -33 8 -5 8 -13 1 -27 -6 -11 -8 -24 -5 -29 4 -6 -1 -13 -9 -16 -9
-3 -19 -22 -22 -42 -4 -21 -15 -43 -25 -50 -10 -7 -23 -27 -28 -45 -5 -18 -17
-50 -25 -72 -8 -22 -15 -69 -16 -105 -1 -79 -16 -149 -37 -173 -20 -22 -22
-185 -2 -197 6 -4 8 -13 5 -19 -4 -6 -11 -9 -16 -6 -4 3 -27 1 -51 -4 -24 -5
-82 -16 -129 -25 -47 -10 -128 -30 -180 -46 -103 -31 -174 -44 -232 -41 -30 1
-41 -4 -55 -26 -16 -23 -18 -51 -18 -206 0 -107 4 -182 10 -187 6 -4 28 -13
50 -20 22 -7 49 -19 60 -25 11 -7 42 -15 68 -19 27 -3 87 -18 134 -32 58 -18
107 -26 154 -25 75 1 88 -12 52 -52 -17 -19 -17 -19 5 -13 21 7 22 5 16 -18
-5 -20 -2 -26 9 -26 9 0 18 9 22 19 6 20 45 36 45 19 0 -5 -8 -17 -17 -26 -16
-16 -15 -17 6 -20 12 -2 29 2 37 8 11 10 14 9 14 -4 0 -9 -8 -16 -17 -16 -10
0 -24 -4 -32 -9 -13 -8 -13 -12 0 -27 8 -10 9 -15 2 -11 -6 4 -14 3 -18 -3 -3
-5 1 -10 10 -10 8 0 18 7 21 15 5 12 9 12 29 -1 21 -14 27 -14 55 1 18 9 34
14 38 11 3 -3 1 -6 -5 -6 -5 0 -10 -7 -10 -15 0 -19 11 -19 29 -2 11 11 20 11
48 1 19 -7 29 -13 23 -13 -15 -1 -18 -41 -4 -41 5 0 8 -6 7 -12 0 -7 2 -13 5
-13 3 0 13 -8 23 -17 10 -10 24 -18 32 -18 8 0 14 -6 15 -12 0 -7 4 -3 9 10
11 25 19 27 44 9 17 -12 14 -47 -5 -47 -4 0 -6 -7 -3 -15 4 -10 11 -12 23 -6
17 10 73 -8 85 -27 8 -13 -42 -6 -59 8 -11 9 -15 9 -15 1 0 -6 5 -11 10 -11
22 0 8 -20 -17 -26 -62 -13 -115 -36 -102 -45 10 -6 3 -12 -24 -24 -20 -8 -37
-20 -37 -25 0 -16 22 -12 44 9 25 22 125 43 146 30 12 -7 11 -9 -5 -10 -11 -1
-25 -2 -31 -2 -6 0 -9 -10 -6 -25 l5 -25 16 21 c9 12 31 25 49 28 18 4 35 11
38 15 3 5 15 9 27 10 21 0 21 1 2 8 -18 7 -17 9 10 14 26 5 47 5 104 -1 23 -3
-19 -31 -46 -32 -12 0 -27 -9 -33 -19 -5 -11 -24 -22 -41 -26 -28 -6 -29 -8
-12 -21 10 -7 14 -14 8 -14 -15 0 45 -30 62 -30 9 0 6 -9 -11 -27 -14 -15 -23
-30 -20 -35 3 -4 0 -8 -5 -8 -6 0 -11 5 -11 12 0 6 -3 9 -6 5 -4 -3 -3 -14 1
-24 4 -10 8 -33 10 -51 1 -19 7 -37 14 -41 7 -5 0 -8 -16 -8 -18 0 -41 -13
-67 -37 -34 -33 -39 -35 -50 -20 -12 15 -13 15 -13 -2 0 -10 6 -25 14 -32 8
-8 13 -9 13 -2 0 6 8 13 18 17 9 3 31 21 47 39 40 41 76 38 93 -10 7 -17 19
-41 27 -51 14 -19 14 -18 5 9 -6 16 -8 36 -6 43 3 8 2 12 -3 9 -5 -3 -11 0
-14 8 -3 8 1 17 9 20 8 3 14 15 14 26 0 24 22 50 42 50 7 0 28 -14 46 -31 31
-29 37 -53 35 -126 -1 -7 3 -13 7 -13 10 0 40 -99 40 -132 0 -37 -10 -40 -46
-13 l-32 24 -7 -26 c-5 -21 -8 -24 -16 -12 -8 12 -10 12 -19 -1 -5 -8 -10 -20
-10 -26 0 -7 -9 -14 -21 -17 -12 -3 -18 -10 -15 -15 3 -6 0 -12 -6 -15 -7 -2
-10 -8 -6 -12 4 -4 13 -3 20 2 7 6 27 15 44 21 25 8 35 7 47 -6 14 -13 21 -13
43 -3 53 24 71 -37 26 -94 -17 -21 -21 -23 -32 -10 -10 12 -10 15 1 15 10 0 9
5 -4 17 -9 9 -20 13 -24 9 -5 -4 -8 -47 -9 -94 -1 -79 -6 -106 -32 -152 -29
-50 -31 -58 -18 -76 22 -32 15 -115 -12 -142 -23 -23 -42 -62 -42 -88 0 -16
15 -23 118 -54 40 -12 85 -28 100 -36 15 -8 32 -14 38 -14 5 0 25 -11 44 -25
27 -20 45 -25 94 -25 72 0 85 9 140 95 77 118 84 130 95 166 6 20 23 51 37 70
14 19 32 49 40 68 12 30 16 32 31 20 15 -12 16 -12 8 1 -8 13 -7 13 8 1 15
-12 17 -11 17 3 0 9 4 24 9 34 6 9 13 34 16 54 8 51 25 64 89 72 61 8 99 1 93
-17 -4 -14 23 -47 40 -47 7 0 13 -8 13 -17 0 -15 2 -16 10 -3 7 12 12 12 22 2
6 -6 23 -12 36 -12 16 0 26 -7 29 -20 4 -14 11 -19 23 -15 10 3 21 1 25 -5 11
-19 101 -3 142 24 45 31 53 32 53 6 0 -26 27 -37 51 -21 11 6 19 7 19 2 0 -6
-4 -13 -10 -16 -19 -12 -10 -22 20 -22 17 0 30 4 30 9 0 5 4 7 9 4 4 -3 21 6
37 19 21 18 30 21 32 11 3 -15 49 -19 58 -5 3 5 19 9 35 9 26 0 29 -3 23 -25
-5 -21 -3 -25 14 -25 12 0 24 -5 27 -10 3 -6 19 -10 36 -10 16 0 29 -4 29 -10
0 -5 -7 -7 -15 -4 -8 4 -15 1 -15 -5 0 -6 4 -11 9 -11 5 0 11 -14 15 -31 4
-19 13 -33 26 -36 21 -6 28 -23 8 -23 -17 0 -3 -11 19 -14 23 -4 26 -53 5 -78
-13 -16 -12 -16 15 -6 26 10 33 8 50 -8 11 -10 26 -40 33 -66 6 -26 23 -57 37
-70 14 -13 29 -33 34 -45 11 -29 27 -29 39 0 5 12 9 16 9 10 1 -7 9 -13 19
-13 24 1 136 41 269 97 l112 47 -4 156 c-9 325 -46 465 -148 572 -16 17 -39
69 -33 75 4 4 66 -81 66 -91 0 -18 112 -148 220 -255 259 -256 400 -352 835
-571 124 -63 148 -72 213 -77 70 -6 72 -5 72 17 0 26 -152 338 -232 476 -59
100 -146 214 -244 317 -109 114 -267 252 -284 249 -9 -1 -23 4 -30 13 -7 8
-17 15 -23 15 -6 0 -19 7 -29 17 -10 9 -20 14 -23 11 -2 -2 19 -22 47 -44 29
-21 59 -46 68 -55 263 -278 282 -300 313 -350 12 -20 48 -75 79 -123 85 -128
148 -276 148 -348 0 -24 -6 -23 -113 13 -163 55 -395 180 -512 275 -267 218
-418 364 -522 504 -38 52 -86 113 -107 134 -20 22 -36 43 -36 47 0 4 -28 39
-62 77 -35 38 -74 83 -88 101 -14 17 -31 37 -39 44 -7 7 -36 33 -65 58 -59 53
-155 119 -173 119 -7 0 -17 9 -23 19 -11 21 -68 45 -235 97 -112 36 -289 61
-352 51 -19 -3 -38 -1 -45 6 -22 21 -67 37 -103 37 -19 0 -37 4 -40 10 -6 9
123 143 195 202 46 38 429 420 504 503 32 36 62 65 66 65 9 0 63 -120 83 -185
9 -27 18 -72 22 -99 9 -66 37 -171 61 -226 46 -108 141 -280 155 -280 5 0 9
-6 9 -13 0 -16 207 -219 267 -262 23 -16 105 -78 182 -136 109 -84 135 -100
120 -75 -10 17 -36 50 -58 74 -39 42 -39 43 -13 38 71 -14 95 -12 98 9 2 11
12 27 23 36 20 16 20 16 -5 29 -22 12 -33 30 -17 30 16 0 73 -25 73 -32 0 -4
-4 -8 -9 -8 -4 0 -6 -11 -3 -25 2 -14 9 -25 14 -25 6 0 8 9 5 19 -3 13 3 22
20 30 21 10 24 9 19 -6 -5 -16 1 -18 44 -18 28 0 50 3 50 8 0 4 -7 7 -15 7 -8
0 -15 4 -15 8 0 5 15 7 33 6 30 -3 34 1 59 52 24 51 26 66 27 196 2 120 4 143
19 154 9 7 84 26 167 44 82 17 177 37 210 45 33 7 104 24 159 36 66 15 108 30
128 47 16 13 26 27 24 30 -3 3 -1 11 5 18 15 18 29 73 20 79 -5 2 -23 0 -41
-5 -44 -13 -48 -7 -16 23 32 30 33 37 4 29 -18 -4 -20 -2 -16 16 7 26 5 27
-26 7 -23 -15 -23 -15 -23 10 0 20 7 29 36 41 41 17 103 73 95 86 -3 5 -30 27
-60 49 -39 28 -61 38 -75 34 -11 -4 -26 -2 -33 4 -7 6 -69 22 -137 37 -68 14
-153 32 -189 39 -36 8 -76 17 -90 20 -14 2 -50 10 -80 16 -30 6 -68 22 -83 35
-30 25 -47 30 -47 15 0 -5 -8 -7 -19 -4 -14 3 -20 17 -24 51 -6 57 -3 62 17
25 9 -16 16 -22 16 -13 1 9 5 6 10 -7 14 -36 38 -28 46 14 5 25 3 38 -5 41 -6
2 -9 8 -5 13 3 5 -2 9 -10 9 -13 0 -14 5 -5 27 6 15 8 41 4 58 -6 31 -44 89
-45 68 0 -7 -4 -13 -9 -13 -4 0 -8 24 -7 53 0 28 -2 63 -4 77 -6 30 -46 50
-77 39 -17 -6 -21 -5 -17 5 3 8 0 17 -6 21 -8 5 -6 13 6 26 23 25 35 150 13
133 -8 -6 -26 -14 -41 -18 -14 -3 -34 -9 -43 -12 -16 -7 8 28 102 145 62 77
149 221 206 341 27 58 56 113 64 122 21 23 10 46 -29 63 -18 7 -62 45 -98 85
-36 39 -83 91 -105 115 l-40 44 -40 -25 c-22 -13 -58 -32 -80 -43 -22 -10 -68
-45 -102 -77 -69 -65 -78 -72 -144 -108 -51 -28 -78 -22 -60 12 6 11 11 27 11
34 0 7 -6 4 -12 -7 -6 -11 -24 -32 -39 -47 -16 -15 -29 -32 -29 -37 0 -6 -11
-11 -25 -11 -14 0 -24 5 -22 11 3 15 -36 21 -44 7 -5 -7 -30 -4 -80 12 -92 28
-142 53 -166 84 -20 25 -114 77 -173 94 -19 6 -53 18 -75 26 -22 8 -55 15 -73
16 -56 0 -77 32 -90 135 -13 102 -115 422 -140 443 -11 8 -65 12 -187 12
l-171 0 -21 -37z m-793 -633 c0 -5 -4 -10 -10 -10 -5 0 -10 5 -10 10 0 6 5 10
10 10 6 0 10 -4 10 -10z m2020 -200 c0 -5 -4 -10 -10 -10 -5 0 -10 5 -10 10 0
6 5 10 10 10 6 0 10 -4 10 -10z m485 -250 c7 0 15 -5 17 -12 3 -7 24 -11 57
-9 39 1 52 -2 49 -11 -7 -20 -90 -23 -100 -4 -5 9 -15 16 -23 16 -16 0 -50 34
-67 65 -7 11 3 6 21 -13 18 -17 39 -32 46 -32z m-1614 -307 c8 -10 21 -31 29
-46 8 -16 27 -39 42 -52 15 -13 28 -29 28 -35 0 -12 -158 -175 -170 -175 -10
0 -40 -32 -40 -43 0 -15 -48 -54 -58 -48 -6 3 -20 -8 -32 -24 -21 -29 -25 -31
-68 -24 -36 5 -44 4 -40 -7 19 -50 18 -56 -6 -67 -15 -7 -29 -26 -37 -54 -10
-30 -19 -43 -32 -42 -20 2 -21 -1 -7 -26 8 -14 3 -22 -24 -41 -19 -13 -33 -27
-30 -30 5 -9 -65 -4 -73 5 -3 3 2 17 11 31 9 14 13 25 9 25 -5 0 -14 -10 -22
-21 -10 -17 -15 -19 -21 -9 -5 9 -8 1 -7 -21 2 -24 7 -33 17 -31 24 5 -10 -26
-51 -46 -26 -13 -35 -24 -37 -48 -2 -22 -11 -35 -28 -43 -31 -14 -111 -15
-119 -1 -11 17 -19 160 -9 160 5 0 9 28 8 63 -1 76 10 112 32 103 10 -4 19 4
28 26 l14 31 7 -34 c4 -19 14 -43 23 -54 8 -11 12 -13 10 -5 -19 57 -20 62 -9
56 6 -4 11 -2 11 3 0 6 -4 11 -10 11 -5 0 -10 9 -10 20 0 11 3 20 8 20 10 0
12 149 1 155 -16 10 -10 40 10 52 18 11 20 8 30 -40 28 -142 40 -194 49 -217
14 -32 15 -10 2 24 -5 14 -12 67 -14 117 -4 70 -2 96 9 112 14 20 14 20 24 -6
6 -15 12 -27 13 -27 2 0 1 30 0 67 -5 99 7 77 35 -59 6 -32 23 -38 23 -9 0 11
5 23 10 26 6 3 10 20 10 36 0 53 69 58 71 5 1 -11 8 4 16 35 11 41 21 60 40
70 22 12 26 11 43 -11 l19 -25 -6 40 c-6 35 -5 39 9 27 13 -10 17 -10 22 3 5
14 8 14 18 3 19 -20 74 -127 88 -170 6 -21 16 -40 21 -43 5 -3 0 18 -10 47
-38 109 -51 156 -51 183 l0 27 28 -24 c16 -13 49 -57 73 -98 35 -60 45 -70 47
-52 2 12 -10 46 -27 75 -16 29 -33 71 -36 93 -6 36 -5 40 16 41 13 1 31 -5 41
-14 17 -15 18 -14 12 15 -7 36 5 42 27 15z m1589 -71 c0 -4 -6 -16 -14 -27 -7
-11 -17 -33 -23 -50 l-9 -29 -17 33 c-21 41 -21 42 -3 35 8 -3 22 6 33 20 18
25 33 33 33 18z m27 -145 c6 -4 14 -3 18 3 10 16 22 12 28 -11 3 -13 -2 -28
-14 -40 -23 -23 -35 -17 -70 33 l-21 29 23 -3 c13 -2 29 -7 36 -11z m-2090
-49 c-3 -8 -6 -5 -6 6 -1 11 2 17 5 13 3 -3 4 -12 1 -19z m803 -92 c-6 -5 -16
-4 -25 4 -12 10 -13 15 -4 21 15 9 40 -13 29 -25z m-25 -26 c3 -5 -1 -10 -9
-10 -9 0 -16 5 -16 10 0 6 4 10 9 10 6 0 13 -4 16 -10z m75 -3 c0 -7 -26 -39
-57 -71 -32 -33 -58 -63 -58 -67 0 -4 -3 -11 -7 -15 -11 -11 -10 -54 1 -54 5
0 12 9 16 20 3 10 25 36 49 57 24 21 46 48 50 61 6 19 10 21 22 11 8 -6 14
-20 14 -31 0 -16 5 -19 20 -15 16 4 33 -9 75 -61 30 -36 55 -69 55 -73 0 -4
-15 -22 -32 -41 -18 -18 -59 -62 -92 -97 -51 -56 -67 -67 -98 -70 -5 -1 -8 -9
-8 -18 0 -19 -216 -238 -308 -314 -29 -24 -76 -63 -104 -86 -28 -23 -56 -39
-63 -37 -7 3 -11 -4 -11 -17 1 -32 -27 -46 -58 -30 -41 23 -50 76 -32 203 11
79 2 118 -39 162 -27 29 -35 47 -35 75 0 53 7 59 80 69 19 2 41 9 48 14 9 8
12 5 12 -8 1 -13 6 -8 15 14 8 17 18 32 22 32 17 0 37 67 36 113 -2 40 1 48
14 45 9 -2 21 -18 25 -37 5 -18 12 -31 15 -27 3 3 0 26 -6 52 -12 45 -11 49
13 71 14 13 30 23 36 23 17 0 11 -46 -11 -74 -11 -14 -16 -26 -10 -26 6 0 8
-7 5 -15 -4 -8 -2 -15 4 -15 13 0 19 16 27 74 8 50 25 63 25 19 l0 -27 26 35
25 34 -6 -37 c-8 -41 -5 -44 26 -28 22 12 26 35 4 26 -30 -11 -14 25 28 64 38
36 56 45 80 41 12 -2 134 67 142 79 9 14 25 12 25 -3z m-198 -34 c-6 -10 -20
-27 -32 -38 l-21 -19 3 39 c2 30 8 42 23 46 27 8 39 -5 27 -28z m-1648 -3
c-15 -15 -83 -22 -119 -13 -29 7 -29 8 15 14 77 10 115 10 104 -1z m1539 -38
c-1 -5 7 -8 17 -5 23 6 25 -4 6 -29 -14 -19 -32 -25 -21 -8 3 6 4 10 0 10 -3
0 -10 -10 -14 -22 -7 -18 -9 -12 -8 24 1 27 6 46 12 44 6 -2 9 -8 8 -14z m-32
-15 c-6 -6 -11 -19 -11 -29 0 -10 -4 -18 -10 -18 -12 0 -12 0 1 38 6 18 15 29
21 26 6 -4 6 -10 -1 -17z m-163 -182 c1 -19 -3 -35 -8 -35 -9 0 -11 46 -3 63
7 13 10 7 11 -28z m1922 -181 c42 -93 60 -160 62 -231 1 -51 -4 -72 -31 -128
-27 -54 -36 -65 -51 -60 -13 4 -25 -1 -37 -16 -21 -25 -38 -43 -81 -81 -25
-23 -32 -25 -42 -13 -8 10 -8 19 -1 34 16 28 14 33 -8 21 -26 -13 -54 -13 -68
1 -9 9 -7 21 8 48 10 19 19 52 19 73 0 20 4 39 9 43 19 11 41 69 41 107 0 27
4 38 15 38 8 0 15 -8 16 -17 0 -12 2 -13 6 -5 4 9 16 6 47 -12 l43 -25 21 38
c24 41 28 102 13 161 -29 112 -23 119 19 24z m33 49 c3 -5 8 -33 11 -63 8 -66
-9 -48 -23 24 -7 40 -1 61 12 39z m475 -38 c-3 -3 -9 2 -12 12 -6 14 -5 15 5
6 7 -7 10 -15 7 -18z m-38 -46 c0 -5 5 -7 10 -4 6 3 10 -1 10 -9 0 -17 -31
-20 -65 -6 -19 8 -19 8 5 18 33 14 40 14 40 1z m140 2 c0 -6 -4 -13 -10 -16
-5 -3 -10 1 -10 9 0 9 5 16 10 16 6 0 10 -4 10 -9z m-2726 -98 c21 -32 42 -78
48 -103 9 -40 8 -52 -11 -93 -22 -47 -22 -47 -50 -33 -56 29 -131 130 -131
176 0 29 40 86 50 70 4 -7 13 -2 24 14 9 14 20 26 25 26 4 0 25 -26 45 -57z
m2566 41 c0 -2 -12 -4 -26 -4 -14 0 -23 4 -20 9 6 8 46 4 46 -5z m-4323 -75
c35 -17 71 -28 79 -25 8 3 14 1 14 -3 0 -5 -19 -11 -42 -14 -24 -3 -58 -9 -76
-13 -26 -5 -40 -2 -63 15 -38 28 -57 23 -28 -7 l21 -24 -28 4 c-22 2 -30 10
-38 35 -19 70 52 84 161 32z m1110 -36 c-3 -2 1 -19 8 -36 7 -18 20 -56 28
-84 15 -51 15 -53 -3 -53 -15 0 -17 6 -13 40 4 32 2 40 -10 40 -20 0 -28 23
-33 95 -4 59 -4 60 12 32 8 -16 13 -31 11 -34z m-147 22 c12 -31 24 -33 15 -2
-6 21 -6 21 14 -3 11 -14 22 -41 26 -60 3 -19 9 -43 12 -54 4 -13 2 -16 -8
-11 -9 6 -11 3 -6 -9 4 -10 10 -29 13 -42 7 -28 21 -31 27 -6 4 16 4 16 12 -2
5 -10 4 -21 -3 -25 -16 -10 -5 -68 18 -91 22 -22 19 -43 -5 -33 -18 6 -20 -20
-2 -34 6 -6 24 -13 39 -17 20 -4 32 -17 43 -42 21 -50 19 -57 -12 -51 l-28 5
28 -22 c15 -12 27 -30 27 -39 0 -10 11 -29 25 -43 22 -22 23 -26 8 -31 -11 -4
-25 4 -45 28 -40 48 -141 258 -172 359 -15 47 -32 100 -37 118 -8 23 -7 37 0
46 9 10 8 15 -2 19 -20 7 -28 67 -10 67 7 0 18 -11 23 -25z m3430 -185 c0 -5
-4 -10 -10 -10 -5 0 -10 5 -10 10 0 6 5 10 10 10 6 0 10 -4 10 -10z m-3207
-67 c10 -25 11 -39 4 -42 -15 -5 -37 28 -37 56 0 35 16 28 33 -14z m607 7 c0
-5 -4 -10 -10 -10 -5 0 -10 5 -10 10 0 6 5 10 10 10 6 0 10 -4 10 -10z m-1270
-45 c-33 -19 -50 -18 -26 0 11 8 27 15 35 15 10 -1 7 -6 -9 -15z m-94 -20
c-19 -15 -46 -20 -46 -10 0 6 40 24 55 24 6 0 1 -6 -9 -14z m-71 -25 c0 -22
-39 -19 -43 3 -3 15 1 18 20 15 12 -2 23 -10 23 -18z m74 -14 c-2 -2 -15 -7
-29 -10 l-25 -7 25 20 c14 11 27 15 29 10 1 -6 1 -12 0 -13z m829 -43 c18 -25
21 -33 10 -33 -22 0 -68 39 -68 56 0 25 30 12 58 -23z m-613 -93 c3 -5 2 -10
-4 -10 -5 0 -13 5 -16 10 -3 6 -2 10 4 10 5 0 13 -4 16 -10z m669 -26 c23 -22
9 -39 -15 -18 -10 9 -16 21 -13 25 7 12 10 11 28 -7z m2477 -76 c12 -16 19
-38 16 -49 -3 -11 1 -23 11 -28 15 -8 15 -10 2 -14 -38 -12 -60 -14 -66 -6 -3
5 0 9 7 9 11 0 11 2 0 13 -10 10 -14 8 -23 -6 -9 -18 -11 -18 -29 -1 -10 9
-19 23 -19 29 0 7 -7 16 -16 19 -24 9 -13 32 36 69 43 33 45 33 53 15 4 -11
17 -33 28 -50z m-2382 -58 c5 -16 7 -30 4 -30 -12 0 -43 33 -43 47 0 25 28 13
39 -17z m-131 -74 c2 -9 -3 -16 -11 -16 -17 0 -50 34 -41 43 10 10 49 -9 52
-27z m-59 -211 c31 -38 65 -83 75 -100 l19 -30 -30 28 c-16 15 -33 27 -39 27
-5 0 -61 27 -124 59 -126 65 -138 81 -81 112 19 10 39 23 45 29 12 12 55 -27
135 -125z m156 -1 c2 -26 -16 -53 -38 -54 -8 0 0 77 10 93 9 14 24 -8 28 -39z
m-461 -50 c22 -8 20 -21 -4 -34 -18 -9 -20 -8 -20 15 0 27 1 28 24 19z m426
-58 c0 -3 -4 -8 -10 -11 -5 -3 -10 -1 -10 4 0 6 5 11 10 11 6 0 10 -2 10 -4z
m-158 -59 c61 -49 70 -80 37 -116 l-22 -23 -18 23 c-10 13 -14 26 -9 27 6 2
10 8 10 13 0 6 -5 7 -10 4 -6 -3 -13 1 -16 9 -3 9 -12 16 -19 16 -13 0 -25 30
-25 68 0 31 12 28 72 -21z m564 -57 c7 0 11 -6 8 -13 -5 -14 34 -37 62 -37 9
0 14 -7 12 -17 -3 -15 -13 -18 -67 -16 -34 1 -65 4 -68 6 -2 3 -18 1 -35 -5
-45 -16 -54 7 -17 44 16 16 29 34 29 40 0 6 12 8 31 4 17 -3 38 -6 45 -6z
m-236 -50 c0 -5 -7 -10 -15 -10 -8 0 -15 5 -15 10 0 6 7 10 15 10 8 0 15 -4
15 -10z m455 -239 c3 -1 12 -1 21 -1 11 0 14 -6 10 -22 -3 -13 -3 -17 0 -10 9
18 32 14 44 -8 6 -11 26 -27 45 -35 52 -21 44 -54 -17 -69 -17 -4 -28 -2 -28
4 0 5 -7 10 -15 10 -9 0 -12 6 -8 17 5 12 2 15 -10 10 -9 -3 -17 -2 -17 3 0 6
7 10 15 10 8 0 15 5 15 11 0 6 -7 9 -15 5 -8 -3 -28 -3 -44 0 -24 5 -27 10
-23 31 3 18 1 24 -7 19 -6 -4 -11 -16 -11 -27 0 -12 -7 -19 -19 -19 -30 0 -51
11 -51 26 0 8 -4 14 -10 14 -5 0 -7 -8 -4 -17 5 -17 5 -17 -6 0 -6 9 -15 15
-21 12 -16 -11 -10 4 12 26 14 14 29 19 45 16 14 -2 27 -1 29 4 3 4 19 4 35
-1 17 -5 33 -9 35 -9z m-465 -31 c0 -11 -4 -20 -9 -20 -5 0 -12 -8 -14 -17 -3
-10 -5 -4 -6 13 0 17 2 34 6 37 12 13 23 7 23 -13z m250 5 c0 -9 -9 -15 -25
-15 -26 0 -34 15 -12 23 23 10 37 7 37 -8z m-205 -25 c-3 -5 -10 -10 -16 -10
-5 0 -9 5 -9 10 0 6 7 10 16 10 8 0 12 -4 9 -10z m75 -22 c0 -5 -4 -8 -10 -8
-5 0 -10 10 -10 23 0 18 2 19 10 7 5 -8 10 -18 10 -22z m-170 -18 c0 -13 -7
-20 -20 -20 -11 0 -20 7 -20 15 0 18 16 20 23 3 3 -8 6 -6 6 5 1 24 11 22 11
-3z m227 -38 c0 -23 -23 -56 -31 -44 -10 17 5 71 18 66 7 -3 13 -13 13 -22z
m1153 -367 c0 -8 -2 -15 -4 -15 -2 0 -6 7 -10 15 -3 8 -1 15 4 15 6 0 10 -7
10 -15z"/>
<path d="M2310 3900 c0 -5 5 -10 11 -10 5 0 7 5 4 10 -3 6 -8 10 -11 10 -2 0
-4 -4 -4 -10z"/>
<path d="M2785 3769 c-6 -19 0 -38 9 -28 10 12 16 49 7 49 -5 0 -13 -9 -16
-21z"/>
<path d="M2780 3720 c0 -5 5 -10 10 -10 6 0 10 5 10 10 0 6 -4 10 -10 10 -5 0
-10 -4 -10 -10z"/>
<path d="M2828 3705 c-6 -30 -3 -43 8 -33 3 4 4 19 2 35 l-3 28 -7 -30z"/>
<path d="M2429 3426 c-3 -29 -4 -34 -11 -42 -5 -4 -8 -12 -8 -18 0 -5 9 0 20
12 11 12 20 28 20 36 0 20 -20 31 -21 12z"/>
<path d="M4257 3174 c-9 -17 -14 -34 -11 -36 2 -3 0 -17 -6 -32 -6 -18 -6 -25
0 -21 6 3 10 11 10 17 0 5 7 25 16 44 21 43 13 69 -9 28z"/>
<path d="M2460 1787 c0 -8 -8 -18 -17 -20 -17 -4 -17 -5 0 -6 18 -1 35 25 23
36 -3 4 -6 -1 -6 -10z"/>
<path d="M3746 4942 c-9 -15 4 -42 21 -42 8 0 11 -5 7 -11 -4 -7 -1 -10 7 -7
19 6 18 33 -1 33 -8 0 -15 5 -15 12 0 17 -12 26 -19 15z"/>
<path d="M1000 2750 c-8 -5 -12 -12 -9 -15 8 -8 39 5 39 16 0 11 -11 11 -30
-1z"/>
<path d="M1111 2679 c-15 -26 -10 -33 12 -16 10 7 13 17 9 24 -6 9 -11 6 -21
-8z"/>
<path d="M1106 2486 c3 -9 11 -16 16 -16 13 0 5 23 -10 28 -7 2 -10 -2 -6 -12z"/>
<path d="M1255 2430 c-3 -5 -1 -10 4 -10 6 0 11 5 11 10 0 6 -2 10 -4 10 -3 0
-8 -4 -11 -10z"/>
<path d="M4279 2428 c-7 -64 -7 -64 26 -54 31 10 31 11 18 38 -15 29 -42 38
-44 16z"/>
<path d="M4340 2426 c0 -2 8 -10 18 -17 15 -13 16 -12 3 4 -13 16 -21 21 -21
13z"/>
<path d="M1215 2410 c-3 -5 -2 -10 4 -10 5 0 13 5 16 10 3 6 2 10 -4 10 -5 0
-13 -4 -16 -10z"/>
<path d="M1295 2361 c-3 -2 -5 -8 -5 -12 0 -8 38 0 44 10 5 7 -32 9 -39 2z"/>
<path d="M1306 2327 c-16 -12 -16 -14 -2 -26 19 -16 36 -6 36 20 0 22 -9 24
-34 6z"/>
<path d="M1544 2215 c0 -18 2 -33 5 -31 3 2 15 6 26 10 16 6 17 9 5 17 -11 8
-12 12 -2 16 16 6 5 23 -16 23 -13 0 -17 -9 -18 -35z"/>
<path d="M4213 2225 c24 -22 57 -33 57 -21 0 5 -69 46 -78 46 -4 0 6 -12 21
-25z"/>
<path d="M1596 2165 c-3 -8 -1 -15 4 -15 13 0 22 18 11 24 -5 3 -11 -1 -15 -9z"/>
<path d="M1521 2070 c0 -8 8 -31 19 -50 24 -45 24 -28 0 25 -10 22 -19 33 -19
25z"/>
</g>
</svg>
