<?xml version="1.0" standalone="no"?>
<!DOCTYPE svg PUBLIC "-//W3C//DTD SVG 1.1//EN" "http://www.w3.org/Graphics/SVG/1.1/DTD/svg11.dtd">
<svg xmlns:inkscape="http://www.inkscape.org/namespaces/inkscape" xmlns:sodipodi="http://sodipodi.sourceforge.net/DTD/sodipodi-0.dtd" xmlns="http://www.w3.org/2000/svg" xmlns:svg="http://www.w3.org/2000/svg" width="296.8578186035156" height="151.64866638183594" viewBox="0 0 296.85782 151.64867" version="1.1" id="svg1" xml:space="preserve" inkscape:version="1.4.2 (ebf0e940, 2025-05-08)" sodipodi:docname="artwork-agile-text.svg"><sodipodi:namedview id="namedview1" pagecolor="#ffffff" bordercolor="#000000" borderopacity="0.25" inkscape:showpageshadow="false" inkscape:pageopacity="0.0" inkscape:pagecheckerboard="0" inkscape:deskcolor="#d1d1d1" inkscape:document-units="mm" showborder="false" borderlayer="false" labelstyle="default" inkscape:antialias-rendering="true" inkscape:zoom="0.57948331" inkscape:cx="440.04718" inkscape:cy="519.42825" inkscape:window-width="1512" inkscape:window-height="917" inkscape:window-x="0" inkscape:window-y="65" inkscape:window-maximized="0" inkscape:current-layer="layer1"/><defs id="defs1"/><g inkscape:label="Layer 1" inkscape:groupmode="layer" id="layer1" transform="translate(-0.14217023,-58.351327)"><path style="fill:#000000;stroke-width:0.905241" d="m 166.99812,209.92481 c -0.35128,-0.084 -1.78835,-0.36746 -3.19349,-0.6298 -6.31399,-1.17886 -10.49824,-3.76736 -13.43661,-8.31226 -1.00675,-1.55719 -1.03634,-1.68941 -0.66178,-2.95796 0.68958,-2.33546 1.06128,-2.50066 6.06224,-2.69436 l 4.41846,-0.17113 1.17015,1.04991 c 3.13415,2.81215 8.00282,3.9785 12.57114,3.01159 2.28228,-0.48306 3.2657,-1.0293 5.27599,-2.93056 2.51195,-2.37568 3.00584,-3.76386 3.41232,-9.59075 0.15031,-2.15472 -0.39083,-2.20058 -2.59819,-0.22018 -2.26526,2.03233 -3.78427,2.94004 -6.47358,3.86838 -2.68307,0.92619 -8.08695,0.98776 -11.01754,0.12555 -2.31028,-0.67972 -5.91727,-2.39789 -7.38646,-3.51849 -1.312,-1.00072 -4.42306,-4.67347 -5.66595,-6.68893 -2.56158,-4.15383 -4.18965,-12.81604 -3.09212,-16.4518 0.18522,-0.61359 0.33677,-1.53505 0.33677,-2.0477 0,-1.31337 0.86935,-4.13978 2.02292,-6.57682 3.0346,-6.41095 8.30794,-10.50435 15.42645,-11.97472 3.14188,-0.64897 5.62738,-0.60355 8.91451,0.16291 3.09873,0.72252 4.86599,1.64692 7.41789,3.88003 0.96219,0.84199 1.87161,1.45538 2.02095,1.36309 0.14934,-0.0923 0.25495,-0.90329 0.23469,-1.80221 -0.0543,-2.41005 0.1405,-2.48697 6.29824,-2.48697 3.74892,0 5.25848,0.10968 5.49438,0.39918 0.43237,0.53065 0.75912,40.90125 0.3625,44.78868 -0.16128,1.58078 -0.48991,3.37712 -0.7303,3.99186 -0.24038,0.61475 -0.60743,1.83627 -0.81566,2.71447 -1.83257,7.72911 -10.83063,13.41448 -21.73736,13.73462 -2.19553,0.0645 -4.27927,0.0484 -4.63056,-0.0357 z m 7.34502,-30.18869 c 2.19397,-0.49716 2.91762,-0.91762 4.96522,-2.885 2.53438,-2.43508 3.40032,-4.72948 3.63909,-9.64209 0.16566,-3.40834 0.11376,-3.91358 -0.61975,-6.03343 -0.69608,-2.0117 -1.10347,-2.61155 -3.12203,-4.59692 -1.76125,-1.7323 -2.66663,-2.37563 -3.75168,-2.66585 -0.78661,-0.21039 -1.58156,-0.50631 -1.76654,-0.6576 -0.18499,-0.15129 -1.47835,-0.23395 -2.87414,-0.18369 -5.52018,0.19877 -10.02031,3.96869 -11.49479,9.62958 -0.89145,3.42251 -0.33627,8.34495 1.26415,11.2084 0.45476,0.81367 0.83341,1.64093 0.84142,1.83836 0.0151,0.3728 3.38451,3.00202 4.76777,3.72042 1.64721,0.85549 5.06264,0.9677 8.15128,0.26782 z m -63.68609,12.15062 c -1.86893,-0.36667 -4.10848,-1.12137 -5.63083,-1.89751 -0.679,-0.34618 -1.40751,-0.62941 -1.61891,-0.62941 -0.57138,0 -2.95579,-2.82432 -3.774496,-4.47089 -1.193225,-2.39977 -1.544549,-4.2344 -1.389825,-7.25774 0.100527,-1.96439 0.350917,-3.24987 0.837782,-4.30113 0.38193,-0.82466 0.694411,-1.61847 0.694411,-1.76402 0,-0.48508 3.750648,-4.15332 4.837128,-4.73086 3.94595,-2.09751 5.8198,-2.72952 10.81096,-3.64632 1.14168,-0.2097 3.00987,-0.58267 4.15155,-0.82883 1.14167,-0.24614 2.90258,-0.59021 3.91313,-0.76459 2.5007,-0.43151 3.11254,-0.80625 3.11254,-1.90638 0,-1.87724 -0.44813,-3.0316 -1.63928,-4.22275 -2.11647,-2.11646 -4.31587,-2.62123 -7.98903,-1.83347 -1.9369,0.41539 -3.90839,2.1759 -4.26747,3.81079 -0.31841,1.44969 -1.2569,1.67806 -5.90386,1.43665 -4.70375,-0.24437 -6.252,-0.58537 -6.47166,-1.42538 -0.412592,-1.57775 1.76778,-6.70564 3.95328,-9.29751 1.51138,-1.7924 5.45991,-3.97831 8.70031,-4.81649 1.25446,-0.32449 3.7179,-0.6811 5.47431,-0.79248 2.9056,-0.18424 3.55137,-0.11218 7.16341,0.79931 2.18346,0.551 4.12351,1.1239 4.31121,1.27312 0.18771,0.14922 0.70056,0.38072 1.13966,0.51445 0.43911,0.13373 1.09353,0.54652 1.45426,0.91729 0.36075,0.37079 1.22299,1.19769 1.9161,1.83757 1.55977,1.43998 1.80513,1.75126 2.62131,3.32561 1.92771,3.71845 1.82674,2.93969 1.90228,14.67191 0.10211,15.86001 0.12945,16.95781 0.5029,20.19013 0.49722,4.30365 0.5869,4.24006 -5.98017,4.24006 -6.32619,0 -6.73706,-0.16621 -6.40364,-2.59045 0.27312,-1.9858 -0.0568,-2.00432 -2.15171,-0.12079 -2.3679,2.12895 -6.52289,4.02705 -9.50066,4.34014 -2.84424,0.29906 -2.95166,0.29771 -4.77499,-0.06 z m 7.00167,-10.04763 c 1.72743,-0.34521 5.25229,-2.23665 6.14475,-3.29728 1.31154,-1.55868 2.23392,-3.80566 2.46039,-5.99366 0.31695,-3.06226 0.41868,-3.03231 -5.57133,-1.64018 -5.76928,1.34082 -7.27535,1.89623 -8.49151,3.13148 -1.51985,1.54371 -2.11507,3.72905 -1.41504,5.19532 0.78317,1.64042 3.69545,3.25629 5.27599,2.92738 0.26347,-0.0549 0.982,-0.20021 1.59675,-0.32306 z m 152.80842,9.44386 c -3.64927,-0.97373 -4.79524,-1.47888 -7.24844,-3.1951 -2.24716,-1.57206 -5.12172,-4.5374 -5.71641,-5.8969 -0.15763,-0.36036 -0.41024,-0.87076 -0.56134,-1.13422 -1.70988,-2.98122 -2.73227,-6.40945 -3.24056,-10.86612 -0.48837,-4.28192 1.04108,-13.29487 2.50437,-14.75817 0.20389,-0.20389 0.37071,-0.53525 0.37071,-0.73635 0,-0.695 2.64046,-4.4614 4.09566,-5.84213 1.76853,-1.67802 3.42134,-2.81868 5.96383,-4.11583 3.75921,-1.91792 4.79803,-2.14109 9.89981,-2.12675 3.7484,0.0105 5.92113,0.52877 9.26112,2.20898 1.92271,0.96724 5.00688,3.60954 6.08471,5.21296 1.86501,2.77445 2.27302,3.4959 2.91606,5.15616 1.21092,3.12641 1.641,5.18689 2.01267,9.64266 0.3971,4.76062 0.23101,5.66791 -1.04503,5.70868 -0.38901,0.0124 -6.97508,0.004 -14.6357,-0.0203 -12.50224,-0.0385 -13.98187,0.0106 -14.45054,0.47924 -0.60139,0.60139 -0.62889,1.4486 -0.0984,3.0313 1.68377,5.02343 6.0478,8.02526 10.91314,7.50671 2.44099,-0.26015 3.98929,-1.16672 6.29736,-3.68729 l 1.82646,-1.99462 1.65885,0.19647 c 0.91236,0.10805 2.38977,0.47106 3.28312,0.80667 0.89334,0.33562 2.25601,0.80665 3.02815,1.04674 0.77214,0.24009 1.60081,0.737 1.84148,1.10426 0.39467,0.60224 0.31637,0.84633 -0.79819,2.48854 -3.0613,4.51054 -5.3254,6.53187 -9.82364,8.7703 -3.38884,1.68636 -10.05337,2.1577 -14.33926,1.0141 z m 13.52533,-30.16134 c 0.47089,-0.47088 0.46519,-0.64959 -0.0696,-2.1846 -0.92195,-2.64618 -2.34189,-4.47877 -4.17786,-5.39201 -1.3597,-0.67634 -2.01532,-0.79438 -4.16827,-0.75049 -2.59695,0.0529 -4.11897,0.57547 -5.78169,1.98492 -0.98454,0.83458 -2.68106,3.46443 -2.68106,4.15606 0,0.32842 -0.15718,0.75431 -0.34929,0.94643 -0.19212,0.19211 -0.29827,0.61604 -0.23589,0.94207 0.16143,0.84378 1.26039,0.94316 9.64622,0.87224 6.2259,-0.0527 7.38035,-0.13751 7.81745,-0.57462 z m -51.84719,29.25075 c -1.04039,-0.12057 -1.83802,-0.62216 -1.60051,-1.00647 0.0819,-0.13249 0.24308,-7.05007 0.35821,-15.3724 0.23799,-17.20293 0.23678,-15.68032 0.026,-32.75714 -0.12006,-9.72758 -0.0652,-12.96296 0.22677,-13.36218 0.6386,-0.87334 11.07068,-0.70097 12.19307,0.20147 0.23042,0.18528 0.31343,2.06327 0.24893,5.63234 -0.12415,6.8694 -0.42745,33.6376 -0.46593,41.12145 -0.0163,3.16155 0.0711,7.77236 0.19423,10.24624 l 0.22378,4.49796 -0.91205,0.35079 c -0.88839,0.34171 -8.57691,0.66994 -10.49252,0.44794 z m -20.85845,-1.10127 c -1.0969,-1.32167 -2.70912,-7.16843 -3.27776,-11.88688 -0.4859,-4.03181 -1.42573,-10.90616 -1.70804,-12.49329 -0.1715,-0.96419 -0.27263,-5.54144 -0.21212,-9.6004 0.0283,-1.90029 0.0626,-1.97973 0.90765,-2.10776 l 0.87821,-0.13303 -0.87821,-0.0479 c -1.04267,-0.0568 -1.03916,-0.0169 -0.34288,-3.89596 l 0.54743,-3.04975 4.09883,0.0829 c 2.25436,0.0456 4.21815,0.15663 4.36399,0.24677 0.14583,0.0902 0.35705,0.072 0.46936,-0.0404 0.37256,-0.37256 0.21173,-0.69654 -0.35463,-0.71436 -0.53585,-0.0168 -4.05274,-0.15585 -7.12863,-0.2817 -1.31436,-0.0538 -1.54053,-0.18248 -2.26478,-1.28868 -0.65233,-0.99636 -0.8177,-1.67762 -0.87383,-3.59991 -0.0478,-1.63704 0.0843,-2.66529 0.42655,-3.32179 0.27269,-0.52294 0.49668,-1.11475 0.49776,-1.31513 0.004,-0.74027 1.91573,-4.37201 2.58195,-4.90495 0.55887,-0.44706 1.57156,-4.35774 1.57156,-6.06889 0,-2.42115 0.31301,-2.45512 3.15443,-0.34223 2.61916,1.94763 3.79726,3.18046 5.2793,5.52456 1.68107,2.65891 2.2393,5.12681 1.80006,7.95781 -0.37561,2.42089 -0.78259,3.38077 -2.47902,5.84695 -0.75584,1.09881 -1.0256,1.78271 -0.88207,2.23624 0.88121,2.78436 1.45301,12.77201 0.9607,16.78044 -0.054,0.43911 -0.19488,1.73247 -0.31323,2.87414 -0.73633,7.10312 -0.79675,7.52259 -2.0702,14.37071 -0.54106,2.90964 -1.27922,5.99181 -1.84015,7.68357 -0.51666,1.55823 -0.67752,1.74712 -1.56125,1.83336 -0.5559,0.0542 -1.14463,-0.0959 -1.35098,-0.34452 z m 5.84905,-44.30078 c 0.10856,-0.17564 -0.0267,-0.31935 -0.30049,-0.31935 -0.27384,0 -0.49787,0.14371 -0.49787,0.31935 0,0.17565 0.13522,0.31935 0.3005,0.31935 0.16527,0 0.38932,-0.1437 0.49786,-0.31935 z m -22.53311,-25.53994 c -2.36048,-2.71389 -2.85842,-2.9815 -5.07011,-2.72481 -1.94908,0.22621 -3.53328,1.21695 -3.53328,2.20965 0,0.74194 -1.43073,2.10393 -2.2101,2.10393 -1.12107,0 -5.74675,-2.15346 -6.00219,-2.79429 -0.0875,-0.21956 -0.36779,-0.3992 -0.62282,-0.3992 -0.27727,0 -0.37385,0.1605 -0.2402,0.3992 0.12293,0.21954 -0.0482,0.13891 -0.38034,-0.1792 -0.57249,-0.54835 -0.57483,-0.59992 -0.045,-0.99325 0.58605,-0.43506 0.79173,-1.0051 0.23951,-0.66382 -0.394,0.24351 -0.42249,-0.23984 -0.0386,-0.65466 0.38341,-0.41428 1.14235,-2.71254 1.15476,-3.49687 0.011,-0.69679 -0.71363,-1.75642 -1.2012,-1.75642 -0.16795,0 -0.99193,-0.57483 -1.83107,-1.2774 -1.41063,-1.18104 -2.5548,-1.63746 -2.5548,-1.01914 0,0.14203 -0.99772,0.2585 -2.21715,0.25881 l -2.21716,5.6e-4 -0.80338,-2.57409 c -0.91323,-2.92605 -1.60573,-6.535295 -1.31057,-6.830464 0.10901,-0.109009 0.94436,-0.498139 1.85632,-0.864735 0.91197,-0.366595 1.65813,-0.842553 1.65813,-1.057686 0,-0.215132 0.15419,-0.493688 0.34265,-0.619012 0.18845,-0.125326 0.45536,-0.515278 0.59313,-0.866562 l 0.2505,-0.638697 0.26263,0.638697 c 0.14444,0.351284 0.2844,0.566844 0.31101,0.479023 0.0663,-0.218746 0.26509,-1.553299 0.40757,-2.736128 0.0649,-0.53884 0.21615,-1.13848 0.33608,-1.332533 0.11993,-0.194054 0.35901,-1.096065 0.53129,-2.00447 0.31316,-1.651274 0.31291,-1.65205 -1.10906,-3.457699 -0.78225,-0.99333 -1.7152,-1.986906 -2.07322,-2.207947 -0.35803,-0.22104 -0.65095,-0.565433 -0.65095,-0.765317 0,-0.630453 2.21633,-3.733755 3.97026,-5.559137 1.70067,-1.76996 2.83952,-2.336727 3.28986,-1.63725 0.86632,1.345583 5.26122,3.442084 5.70623,2.722046 0.24359,-0.39414 1.67074,-0.992247 2.63437,-1.104045 0.80718,-0.09365 1.61442,-0.939457 1.63885,-1.717149 0.0127,-0.403026 0.06,-0.407926 0.29877,-0.03089 0.2051,0.32396 0.27012,0.224635 0.23462,-0.358448 -0.0305,-0.501245 -0.20022,-0.748629 -0.44828,-0.653484 -0.21956,0.08421 -0.3992,-0.006 -0.3992,-0.200413 0,-0.194433 0.13765,-0.353516 0.30588,-0.353516 0.16823,0 0.25546,-0.538901 0.19387,-1.197558 -0.15589,-1.666883 0.41666,-3.855765 1.06214,-4.060634 0.64602,-0.20504 6.96381,0.04497 8.60164,0.340388 2.00493,0.361631 2.22131,0.594398 2.34109,2.518395 0.0603,0.96887 0.0276,1.761386 -0.0728,1.761146 -0.19646,-4.68e-4 0.24117,4.156634 0.46068,4.376142 0.1774,0.177393 2.10025,0.488392 2.99507,0.484415 0.4541,-0.002 0.71945,0.190043 0.72102,0.521885 0.003,0.510396 1.30928,1.323449 2.12723,1.323449 0.57238,0 2.71038,-1.229409 3.39149,-1.950203 1.11045,-1.175154 1.33533,-1.002742 4.3569,3.340407 2.73951,3.937727 2.7448,4.074139 0.25385,6.531261 l -2.04122,2.013511 0.10502,3.575094 c 0.0578,1.966302 0.25888,3.862509 0.44693,4.213792 0.18804,0.351284 1.08672,1.073196 1.99707,1.604246 1.6241,0.94743 1.65418,0.99239 1.60243,2.39512 -0.029,0.78626 -0.40381,2.21995 -0.83289,3.18598 -0.42907,0.96603 -0.87794,2.29028 -0.9975,2.94278 -0.11956,0.6525 -0.3358,1.25955 -0.48053,1.34899 -0.33054,0.20429 -4.08408,-0.39161 -5.10257,-0.81006 -0.61833,-0.25406 -0.8448,-0.191 -1.21567,0.33848 -0.25067,0.35789 -0.72534,0.6507 -1.05483,0.6507 -0.32949,0 -0.69029,0.28742 -0.80178,0.6387 -0.1115,0.35128 -0.33674,0.6387 -0.50054,0.6387 -0.16381,0 -0.29784,0.21555 -0.29784,0.47902 0,0.26347 -0.27629,0.75533 -0.614,1.09303 -0.55994,0.55994 -0.56696,0.63227 -0.0798,0.82147 0.45737,0.17763 0.42466,0.26646 -0.22752,0.61787 -0.49081,0.26447 -0.63277,0.49009 -0.39918,0.63446 0.19937,0.12321 0.36249,0.0668 0.36249,-0.12541 0,-0.23923 0.18369,-0.25112 0.58251,-0.0377 0.65872,0.35255 1.52278,2.84996 1.11866,3.23329 -0.14526,0.13779 -1.55746,0.70285 -3.13824,1.25572 -1.58077,0.55287 -3.18936,1.21084 -3.57462,1.46216 -0.6626,0.43224 -0.78985,0.35422 -2.35236,-1.44223 z m -1.21126,-14.51668 c 2.82223,-0.85653 3.51865,-1.38851 5.54149,-4.23309 0.35128,-0.49398 0.86666,-2.089067 1.14528,-3.544627 l 0.50658,-2.646472 -0.79059,-1.664737 c -1.32848,-2.797352 -3.47911,-5.314849 -4.5534,-5.330147 -0.27425,-0.0039 -0.78392,-0.272882 -1.1326,-0.597724 -0.49829,-0.464228 -1.07498,-0.577909 -2.69485,-0.531219 -1.13349,0.03267 -2.49157,0.179229 -3.01795,0.325685 -1.21531,0.338133 -4.31219,2.306482 -4.31219,2.740789 0,0.180544 -0.41558,0.858736 -0.9235,1.507094 -1.36994,1.748691 -1.84542,4.046649 -1.38601,6.698424 0.20437,1.179629 0.64506,2.677104 0.97932,3.327714 0.60702,1.18154 2.26057,2.80893 2.8541,2.80893 0.17268,0 0.49336,0.21613 0.7126,0.4803 0.90238,1.08731 4.5428,1.4266 7.07172,0.65908 z M 11.294941,120.35187 c -6.0830375,-1.78136 -8.1623838,-3.27179 -9.98461,-7.15675 -1.04183343,-2.22118 -1.44002079,-5.43371 -0.97699737,-7.88233 0.59578242,-3.1507 2.58236317,-6.5644 4.99165067,-8.577552 3.0857957,-2.57843 3.9888676,-2.92151 10.9404777,-4.156326 2.107703,-0.374391 4.478868,-0.917058 5.269256,-1.205926 0.790389,-0.288869 1.910852,-0.478872 2.489919,-0.422232 0.579067,0.05664 1.261676,-0.07033 1.516908,-0.282151 1.024828,-0.850533 0.223998,-4.465057 -1.292362,-5.833033 -1.890477,-1.705484 -5.497518,-2.110896 -7.853813,-0.882727 -1.564252,0.815334 -1.995993,1.279351 -2.768835,2.975832 -0.621296,1.363816 -0.340669,1.311508 -6.4440635,1.201145 C 5.1727382,88.09348 3.1770679,87.930166 2.7476488,87.766901 2.0204218,87.49041 1.9795095,87.355697 2.1509738,85.802215 c 0.3870339,-3.506559 1.0374359,-4.854782 3.5890146,-7.4397 1.9057455,-1.930645 2.9081521,-2.656398 5.0164926,-3.631992 3.477538,-1.609162 5.49106,-2.047885 9.341167,-2.035331 4.528295,0.01476 8.560831,1.182388 10.827695,3.135164 0.510334,0.439625 1.085162,0.801909 1.277395,0.805074 0.553261,0.0091 2.413847,2.422742 3.397388,4.407232 0.494559,0.997873 1.055138,2.689491 1.24573,3.759151 0.257864,1.447216 0.784698,20.720587 0.723749,26.477217 -0.0037,0.35128 0.213523,1.74127 0.48276,3.08887 0.546885,2.73728 0.394941,3.91 -0.57378,4.42844 -0.360102,0.19272 -2.59529,0.38343 -4.967084,0.4238 -5.216367,0.0888 -5.547853,-0.0529 -5.547853,-2.37062 0,-0.88276 -0.146803,-1.57864 -0.33303,-1.57864 -0.183166,0 -1.009482,0.62875 -1.836255,1.3972 -0.826775,0.76846 -2.230254,1.76293 -3.118844,2.20994 -2.784867,1.40091 -8.068088,2.15104 -10.380578,1.47385 z m 9.760754,-10.62344 c 2.595284,-1.18909 4.22034,-2.82876 4.808412,-4.85166 0.49634,-1.70735 0.684551,-4.63365 0.334453,-5.200122 -0.250108,-0.404685 -4.533839,-0.208891 -5.77786,0.264084 -0.46401,0.176418 -1.181631,0.320758 -1.594714,0.320758 -0.83712,0 -4.795003,1.98122 -5.692953,2.84975 -0.831399,0.80416 -0.908104,4.36506 -0.119938,5.56795 1.520237,2.32018 4.437905,2.70082 8.0426,1.04924 z m 70.622732,9.67584 c -4.275554,-1.23557 -6.924248,-3.51888 -7.984444,-6.88299 -0.326029,-1.03452 -0.75194,-2.24022 -0.946468,-2.67932 -0.237645,-0.53644 -0.357485,-4.75744 -0.365264,-12.86544 -0.01,-10.37018 -0.07894,-12.109645 -0.490602,-12.369878 -0.263462,-0.166549 -1.714187,-0.305016 -3.22383,-0.307706 -3.841626,-0.0068 -3.845706,-0.01282 -3.731583,-5.468615 l 0.08941,-4.274549 1.21495,-0.397574 c 0.876935,-0.286963 1.605662,-0.310013 2.61931,-0.08285 1.67071,0.374414 2.813582,0.03092 3.403924,-1.023063 0.280465,-0.500734 0.430065,-2.390817 0.470983,-5.950487 0.06395,-5.563642 0.358317,-6.973935 1.512538,-7.246553 0.37296,-0.08809 2.632294,-0.122189 5.020744,-0.07578 3.156138,0.06133 4.489974,0.20682 4.881898,0.532492 0.483345,0.401639 0.52141,1.084988 0.36713,6.59034 -0.227261,8.109902 -0.106058,8.27536 5.357984,7.314686 1.739213,-0.305782 2.687123,-0.346897 2.950893,-0.12799 0.21373,0.177377 0.4819,1.432348 0.59592,2.788823 0.11404,1.356476 0.28971,3.211867 0.39039,4.123093 0.16273,1.472935 0.0941,1.745674 -0.6181,2.457923 -0.72941,0.729407 -0.91094,0.770831 -2.02725,0.462601 -2.241993,-0.619043 -6.876998,0.189677 -7.296686,1.273133 -0.114314,0.2951 -0.174367,2.764003 -0.13346,5.486453 0.04092,2.722449 0.08699,7.321072 0.102392,10.219161 0.02942,5.52847 0.220318,6.40854 1.676035,7.72594 1.028209,0.93052 3.245062,1.34412 5.303479,0.98949 2.70314,-0.46572 2.82451,-0.30669 3.19891,4.19161 0.36946,4.4388 0.18085,5.10261 -1.58864,5.59119 -0.66532,0.18371 -2.8639,0.4025 -4.88572,0.4862 -3.033335,0.12558 -4.058728,0.0416 -5.864846,-0.48034 z m 158.031043,0.0215 c -1.40513,-0.10953 -2.7975,-0.31079 -3.09414,-0.44725 -0.7877,-0.36238 -0.95399,-1.70431 -0.46589,-3.7597 0.34467,-1.45142 0.41066,-6.59061 0.3342,-26.026939 -0.0524,-13.320126 -0.17562,-25.511775 -0.27383,-27.092552 -0.0982,-1.580776 -0.0677,-3.042954 0.0678,-3.249283 0.28434,-0.432977 11.17748,-0.706763 11.83957,-0.297572 0.29376,0.181552 0.34678,0.934603 0.20101,2.854775 -0.10891,1.434495 -0.24928,3.31755 -0.31194,4.184566 -0.12046,1.666474 -0.21177,12.371779 -0.17519,20.538516 0.012,2.678538 0.13194,4.870069 0.26655,4.870069 0.13461,0 0.72339,-0.800254 1.30841,-1.778343 0.58502,-0.978089 1.25189,-1.850569 1.48193,-1.938842 0.23004,-0.08827 1.0143,-1.048429 1.74281,-2.13368 0.72851,-1.08525 1.64007,-2.40739 2.02569,-2.938089 0.38562,-0.5307 1.45559,-2.001496 2.3777,-3.268436 0.92212,-1.26694 1.67659,-2.424385 1.67659,-2.572099 0,-0.147716 0.37093,-0.616963 0.82429,-1.042775 0.7997,-0.751093 0.97842,-0.774914 5.9878,-0.79807 2.83991,-0.01313 5.47453,0.08642 5.8547,0.221218 1.44947,0.513951 1.2311,1.392821 -1.07009,4.306645 -2.9053,3.678759 -3.87729,4.981894 -4.14377,5.555494 -0.1224,0.263463 -1.00071,1.341266 -1.95179,2.395116 -0.95109,1.053852 -2.078,2.599942 -2.50425,3.435757 -0.8926,1.750236 -1.03199,1.295468 2.01964,6.589113 0.95092,1.649557 2.3876,4.236281 3.1926,5.748281 0.805,1.512 1.96232,3.68318 2.57181,4.82485 0.60949,1.14167 1.21417,2.14763 1.34373,2.23544 0.12955,0.0878 0.84262,1.16563 1.58461,2.39512 0.74198,1.2295 1.84102,2.93374 2.4423,3.78722 1.23354,1.7509 1.24459,1.79169 0.69096,2.54883 -0.35478,0.48519 -1.11085,0.55315 -6.40256,0.57544 -6.63803,0.028 -6.85572,-0.0323 -7.75115,-2.14668 -0.22907,-0.5409 -0.64035,-1.16926 -0.91396,-1.39633 -0.27362,-0.22708 -0.49748,-0.65521 -0.49748,-0.95142 0,-0.29619 -0.46705,-1.32047 -1.03788,-2.27617 -0.57084,-0.9557 -1.22078,-2.0969 -1.44432,-2.53601 -1.09527,-2.15151 -2.90911,-5.48134 -3.17712,-5.83253 -0.16569,-0.21712 -0.49682,-0.89774 -0.73584,-1.51249 -0.83501,-2.14761 -1.26461,-2.01151 -3.84176,1.21704 l -1.93782,2.42764 0.0698,3.2074 c 0.0384,1.76407 0.20563,4.25604 0.37162,5.53771 0.34599,2.6716 -0.0262,4.06876 -1.14772,4.30863 -0.38022,0.0813 -1.40984,0.17093 -2.28805,0.19915 -0.87821,0.0282 -1.8123,0.0916 -2.07576,0.14084 -0.26347,0.0493 -1.62868,-8e-5 -3.03382,-0.1096 z M 45.366211,118.66384 c -0.518713,-0.51853 -0.571308,-0.90425 -0.391903,-2.87413 0.192045,-2.10868 0.216903,-11.52903 0.0855,-32.401099 -0.0333,-5.287965 0.0656,-8.50546 0.266401,-8.666913 0.175642,-0.141228 1.63947,-0.359068 3.252951,-0.484087 3.136807,-0.243053 7.16427,0.23166 7.72798,0.910888 0.174895,0.210737 0.352562,1.140791 0.394814,2.066789 0.04226,0.925997 0.20356,1.761959 0.35846,1.857692 0.154901,0.09573 1.199215,-0.707041 2.320698,-1.783944 1.121483,-1.076903 2.689425,-2.245694 3.484315,-2.597311 2.570159,-1.136904 7.547643,-1.224129 7.963832,-0.139558 0.09707,0.252952 0.203562,2.631376 0.236657,5.285388 0.05489,4.402312 0.0056,4.880017 -0.561784,5.447432 -0.517265,0.517265 -0.834123,0.577092 -1.882405,0.355427 -3.546013,-0.749827 -8.977935,2.149933 -10.725809,5.725832 -1.355547,2.773254 -1.643263,8.071975 -1.14347,21.058764 0.174653,4.53824 0.131311,5.7329 -0.225702,6.22115 -0.400935,0.5483 -0.910566,0.60485 -5.50164,0.61044 -4.526728,0.005 -5.122892,-0.0569 -5.658893,-0.59276 z m 175.761539,0.45599 -2.39512,-0.17643 0.0678,-21.870563 0.0678,-21.870559 0.76229,-0.203867 c 0.41926,-0.112127 2.74272,-0.162284 5.16324,-0.111461 4.87869,0.102436 5.21097,0.231254 5.31993,2.062343 0.0366,0.614598 0.19605,1.379603 0.3544,1.700012 0.25702,0.520029 0.4673,0.412906 1.9591,-0.997977 0.91916,-0.869297 2.16469,-1.835733 2.76784,-2.147639 1.38759,-0.717548 5.04509,-1.009453 6.03177,-0.481394 0.69364,0.37122 0.71554,0.506812 0.53502,3.312501 -0.10352,1.60899 -0.0534,3.499372 0.11127,4.200848 0.24185,1.02995 0.18975,1.460175 -0.27072,2.235442 -0.50707,0.853718 -0.71834,0.950451 -1.90778,0.873526 -2.19547,-0.141987 -4.55822,0.732445 -6.3,2.331574 -0.85513,0.785093 -1.66569,1.427442 -1.80125,1.427442 -0.13556,0 -0.24648,0.258673 -0.24648,0.574828 0,0.316156 -0.12634,0.71135 -0.28077,0.87821 -0.9301,1.005002 -1.11365,3.048664 -1.07416,11.959614 0.0222,5.00579 0.13082,10.46666 0.24141,12.13525 0.27724,4.18285 0.17106,4.30603 -3.73072,4.32798 -1.63889,0.009 -4.05761,-0.0626 -5.37491,-0.15968 z m -102.55199,-0.54407 c -0.28405,-0.32472 -0.69109,-1.3808 -0.90455,-2.34682 -0.57994,-2.62468 -1.87225,-7.49349 -2.75483,-10.37884 -0.4298,-1.40514 -0.77803,-2.77036 -0.77386,-3.03382 0.005,-0.26346 -0.34989,-1.77239 -0.78684,-3.353163 -0.88719,-3.209711 -3.18508,-13.08376 -3.90175,-16.765815 -0.2564,-1.317314 -0.59232,-2.68253 -0.74651,-3.033814 -0.57009,-1.298825 -1.00696,-3.244394 -0.89951,-4.005895 l 0.11067,-0.784338 5.26925,-0.08579 5.26926,-0.08579 1.03372,2.321229 c 0.56854,1.276677 1.17826,3.327178 1.35493,4.556672 0.17666,1.229492 0.61885,3.169538 0.98261,4.311209 0.68308,2.143781 0.82714,2.756454 1.72703,7.345024 0.69212,3.529088 1.42666,6.067628 1.75569,6.067628 0.31804,0 1.28942,-2.34993 1.28942,-3.119324 0,-0.303385 0.41622,-1.845327 0.92494,-3.426538 0.83916,-2.608313 1.58055,-5.060643 2.75177,-9.102231 0.22905,-0.790389 0.66767,-2.586727 0.97471,-3.991861 0.30704,-1.405135 0.85908,-3.201472 1.22674,-3.991861 l 0.66849,-1.43707 4.15153,-0.09697 c 2.28334,-0.05334 4.74537,-0.01113 5.47117,0.09377 1.23019,0.17781 1.34386,0.281782 1.67722,1.534041 0.19667,0.738818 0.50708,2.205547 0.68979,3.259397 0.18271,1.053852 0.45412,2.490922 0.60313,3.193489 0.97136,4.580059 1.64361,7.472238 2.10312,9.048074 0.29025,0.995383 0.81715,2.815737 1.17089,4.045229 0.35373,1.229494 0.70078,2.427027 0.77123,2.661186 0.34862,1.158927 1.02332,-0.258064 2.09189,-4.393434 0.64765,-2.506395 1.32453,-4.93832 1.50419,-5.404277 0.17966,-0.465958 0.56976,-1.924998 0.8669,-3.242312 1.18671,-5.261158 2.38019,-9.685686 2.72459,-10.100662 0.26651,-0.321124 1.27696,-0.437851 3.79028,-0.437851 6.31085,0 8.32949,0.466939 7.42304,1.717059 -0.14305,0.19729 -0.88068,2.298753 -1.63917,4.669918 -0.7585,2.371166 -1.57804,4.783133 -1.82119,5.359928 -0.24315,0.576795 -0.44841,1.367184 -0.45611,1.756419 -0.008,0.389236 -0.23258,1.282529 -0.49971,1.985096 -0.58982,1.551267 -1.70816,5.595505 -2.0311,7.345024 -0.35144,1.90399 -1.60605,6.762754 -2.30889,8.941764 -0.33992,1.05386 -0.7384,2.56278 -0.88553,3.35317 -0.14712,0.79039 -0.58202,2.65858 -0.96643,4.15153 -0.38441,1.49296 -0.77301,3.10504 -0.86355,3.58241 -0.0905,0.47736 -0.34306,1.01602 -0.56114,1.19701 -0.49001,0.40667 -9.93122,0.68743 -10.88771,0.32378 -0.75441,-0.28683 -0.99996,-0.75425 -1.42261,-2.70807 -0.15197,-0.70257 -0.44576,-1.92408 -0.65285,-2.71447 -0.2071,-0.79039 -0.56581,-2.29932 -0.79714,-3.35316 -0.23134,-1.05386 -0.94778,-3.85615 -1.5921,-6.22731 -0.64432,-2.37117 -1.28303,-4.88604 -1.41936,-5.588607 -0.33722,-1.737808 -1.33289,-4.630559 -1.5938,-4.630559 -0.11678,0 -0.54336,1.113729 -0.94798,2.474953 -0.40462,1.361225 -1.07763,3.453541 -1.49559,4.649593 -0.41797,1.19605 -0.75994,2.4065 -0.75994,2.68988 0,0.50199 -1.89258,6.79134 -2.71643,9.02716 -0.22652,0.61475 -0.71593,2.19033 -1.08757,3.50128 -0.37164,1.31096 -0.80714,2.515 -0.96777,2.67563 -0.16064,0.16063 -2.6384,0.35966 -5.50615,0.44228 -4.78168,0.13777 -5.25691,0.10126 -5.73053,-0.44017 z" id="path2"/></g></svg>